<svg height="512pt" viewBox="0 0 512 512.00043" width="512pt" xmlns="http://www.w3.org/2000/svg"><path d="m142.441406 218.671875c-6.902344 2.382813-14.757812-.332031-18.617187-6.863281-4.410157-7.46875-1.9375-17.097656 5.523437-21.507813l71.121094-42.046875 19.613281-78.570312c2.101563-8.414063 10.621094-13.527344 19.03125-11.425782 8.410157 2.105469 13.523438 10.628907 11.425781 19.042969l-21.203124 84.941407c-1.019532 4.078124-3.625 7.574218-7.242188 9.710937l-76.769531 45.386719c-.933594.550781-1.898438.992187-2.882813 1.332031zm0 0" fill="#e8916f"/><path d="m153.855469 397.15625c-3.027344 1.042969-6.398438 1.171875-9.6875.167969l-34.109375-10.421875c-8.292969-2.53125-12.960938-11.308594-10.433594-19.601563 2.53125-8.296875 11.300781-12.964843 19.59375-10.433593l19.332031 5.90625 26.902344-83.449219c1.042969-3.242188 3.109375-6.054688 5.894531-8.015625l89.820313-63.316406c7.089843-4.996094 16.875-3.296876 21.871093 3.792968 4.992188 7.089844 3.300782 16.886719-3.785156 21.878906l-85.535156 60.296876-30.035156 93.167968c-1.574219 4.882813-5.320313 8.46875-9.828125 10.027344zm0 0" fill="#e8916f"/><path d="m434.945312 397.21875c-2.628906.90625-5.527343 1.128906-8.449218.492188-8.457032-1.839844-13.667969-10.398438-11.960938-18.875l3.445313-17.082032-102.714844-33.101562c-3.863281-1.246094-7.097656-3.941406-9.019531-7.523438l-49.863282-92.871094c-.644531-1.203124-1.132812-2.484374-1.445312-3.8125l-34.898438-147.335937c-1.3125-5.546875.476563-11.363281 4.675782-15.207031 4.203125-3.84375 10.15625-5.109375 15.554687-3.308594l93.058594 31.050781c4.21875 1.40625 7.640625 4.535157 9.417969 8.609375l36.832031 84.390625c3.46875 7.949219-.160156 17.203125-8.105469 20.671875-7.933594 3.46875-17.199218-.164062-20.664062-8.113281l-32.976563-75.5625c-.671875-1.539063-1.964843-2.71875-3.558593-3.25l-57.191407-19.085937 27.925781 117.910156 44.410157 82.714844c.953125 1.777343 2.5625 3.113281 4.484375 3.734374l107.042968 34.5c7.605469 2.449219 12.160157 10.222657 10.578126 18.054688l-6.300782 31.257812c-1.140625 5.660157-5.191406 9.988282-10.277344 11.742188zm0 0" fill="#ebad88"/><path d="m248.214844 34.0625c-1.902344 16.792969-17.050782 28.859375-33.839844 26.953125-16.785156-1.910156-28.855469-17.070313-26.949219-33.863281 1.902344-16.796875 17.050781-28.863282 33.839844-26.953125 16.785156 1.90625 28.851563 17.070312 26.949219 33.863281zm0 0" fill="#ebad88"/><path d="m7.5 434.5h497v70h-497zm0 0" fill="#42a5f5"/><path d="m474.5 434.5h30v70h-30zm0 0" fill="#2196f3"/><path d="m504.5 427h-497c-4.144531 0-7.5 3.359375-7.5 7.5v70c0 4.144531 3.355469 7.5 7.5 7.5h497c4.144531 0 7.5-3.355469 7.5-7.5v-70c0-4.140625-3.355469-7.5-7.5-7.5zm-7.5 15v20h-482v-20zm-482 55v-20h482v20zm0 0" fill="#e3e6eb"/><g fill="#f54558"><path d="m215.480469 434.660156c0 8.285156-6.714844 15-15 15-8.285157 0-15-6.714844-15-15s6.714843-15 15-15c8.285156 0 15 6.714844 15 15zm0 0"/><path d="m418.667969 469.5c0 8.285156-6.714844 15-15 15-8.28125 0-15-6.714844-15-15s6.71875-15 15-15c8.285156 0 15 6.714844 15 15zm0 0"/></g></svg>