<svg id="Capa_1" enable-background="new 0 0 496.785 496.785" height="512" viewBox="0 0 496.785 496.785" width="512" xmlns="http://www.w3.org/2000/svg"><g fill="#fdd277"><path d="m354.969 35.5h-90c-4.142 0-7.5-3.358-7.5-7.5s3.358-7.5 7.5-7.5h90c4.142 0 7.5 3.358 7.5 7.5s-3.358 7.5-7.5 7.5z"/><path d="m204.803 102.985v-47.674h29.332v47.973z"/><path d="m204.803 386.917v-260.322h29.332v261.334z"/></g><path d="m234.135 467.475v23.851c0 3.015-2.444 5.459-5.459 5.459h-18.414c-3.015 0-5.459-2.444-5.459-5.459v-23.851c0-3.015 2.444-5.459 5.459-5.459h18.414c3.015 0 5.459 2.444 5.459 5.459z" fill="#373e7a"/><path d="m92.904 464.359-9.264 28.647c-.729 2.253-2.826 3.779-5.194 3.779h-17.86c-3.705 0-6.333-3.612-5.195-7.137l8.887-27.511c.69-2.135 2.616-3.631 4.855-3.77l18.237-1.136c3.842-.24 6.718 3.465 5.534 7.128z" fill="#373e7a"/><path d="m88.338 390.104 87.133-263.509h29.332l-87.133 263.509z" fill="#fdd277"/><path d="m349.6 387.104-86.133-260.509h-29.332l86.133 260.509z" fill="#fef5e4"/><path d="m349.6 387.104-86.133-260.509h-29.332l86.133 260.509z" fill="#fdd277"/><path d="m346.563 465.935 8.737 27.068c.728 2.254 2.826 3.782 5.195 3.782h17.859c3.704 0 6.333-3.611 5.195-7.136l-8.737-27.068c-.728-2.254-2.826-3.782-5.195-3.782h-17.859c-3.704 0-6.332 3.611-5.195 7.136z" fill="#373e7a"/><path d="m237.223 471.333h-35.508c-4.731 0-8.566-3.835-8.566-8.566v-69.63c0-4.731 3.835-8.566 8.566-8.566h35.508c4.731 0 8.566 3.835 8.566 8.566v69.63c0 4.731-3.835 8.566-8.566 8.566z" fill="#a1a7cb"/><path d="m237.223 384.571h-33c4.731 0 8.566 3.835 8.566 8.566v69.63c0 4.731-3.835 8.566-8.566 8.566h33c4.731 0 8.566-3.835 8.566-8.566v-69.63c0-4.731-3.835-8.566-8.566-8.566z" fill="#888dc4"/><path d="m95.896 471.333h-34.44c-5.893 0-10.053-5.773-8.19-11.363l23.139-69.416c1.191-3.573 4.535-5.983 8.301-5.983h34.194c5.972 0 10.19 5.851 8.301 11.517l-23.114 69.342c-1.176 3.525-4.475 5.903-8.191 5.903z" fill="#a1a7cb"/><path d="m118.899 384.571h-33c5.972 0 10.19 5.851 8.301 11.517l-23.114 69.342c-1.175 3.525-4.474 5.903-8.19 5.903h33c3.716 0 7.015-2.378 8.19-5.903l23.114-69.342c1.889-5.666-2.328-11.517-8.301-11.517z" fill="#888dc4"/><path d="m237.223 384.571h-35.508c-4.731 0-8.566 3.835-8.566 8.566v34.815h52.64v-34.815c0-4.731-3.835-8.566-8.566-8.566z" fill="#6165a8"/><path d="m237.223 384.571h-33c4.731 0 8.566 3.835 8.566 8.566v34.815h33v-34.815c0-4.731-3.835-8.566-8.566-8.566z" fill="#4e5291"/><path d="m76.405 390.553-12.466 37.398h52.64l10.621-31.864c1.889-5.666-2.329-11.517-8.301-11.517h-34.194c-3.766.001-7.109 2.411-8.3 5.983z" fill="#6165a8"/><path d="m118.899 384.571h-33c5.972 0 10.19 5.851 8.301 11.517l-10.621 31.864h33l10.621-31.864c1.889-5.666-2.328-11.517-8.301-11.517z" fill="#4e5291"/><path d="m342.966 471.333h34.665c5.82 0 9.929-5.702 8.089-11.223l-23.236-69.709c-1.161-3.482-4.419-5.83-8.089-5.83h-34.665c-5.82 0-9.929 5.702-8.089 11.223l23.236 69.709c1.16 3.481 4.419 5.83 8.089 5.83z" fill="#a1a7cb"/><path d="m385.719 460.11-23.236-69.709c-1.161-3.482-4.419-5.83-8.089-5.83h-33c3.67 0 6.928 2.349 8.089 5.83l23.236 69.709c1.84 5.521-2.269 11.223-8.089 11.223h33c5.82 0 9.93-5.702 8.089-11.223z" fill="#888dc4"/><path d="m354.394 384.571h-34.665c-5.82 0-9.929 5.702-8.089 11.223l10.719 32.158h52.641l-12.517-37.551c-1.161-3.482-4.419-5.83-8.089-5.83z" fill="#6165a8"/><path d="m362.483 390.401c-1.161-3.482-4.419-5.83-8.089-5.83h-33c3.67 0 6.928 2.348 8.089 5.83l12.517 37.551h33z" fill="#4e5291"/><path d="m271.837 126.149h-104.735c-7.145 0-12.938-5.792-12.938-12.938v-6.777c0-7.145 5.792-12.938 12.938-12.938h104.735c7.145 0 12.938 5.792 12.938 12.938v6.777c-.001 7.146-5.793 12.938-12.938 12.938z" fill="#888dc4"/><path d="m271.837 93.497h-33c7.145 0 12.938 5.792 12.938 12.938v6.778c0 7.145-5.792 12.938-12.938 12.938h33c7.145 0 12.938-5.792 12.938-12.938v-6.778c-.001-7.146-5.793-12.938-12.938-12.938z" fill="#6165a8"/><path d="m249.706 65h-60.473c-15.886 0-28.764-12.878-28.764-28.764v-36.236h118v36.236c0 15.886-12.878 28.764-28.763 28.764z" fill="#fef5e4"/><path d="m160.469 0h118v28h-118z" fill="#6165a8"/><path d="m248.469 0h30v28h-30z" fill="#4e5291"/><path d="m160.469 28v8.236c0 15.886 12.878 28.764 28.764 28.764h60.473c15.886 0 28.764-12.878 28.764-28.764v-8.236z" fill="#a1a7cb"/><path d="m248.469 28v8.236c0 15.886-12.878 28.764-28.764 28.764h30c15.886 0 28.764-12.878 28.764-28.764v-8.236z" fill="#888dc4"/><path d="m429.969 42h-61c-7.732 0-14-6.268-14-14 0-7.732 6.268-14 14-14h61c7.732 0 14 6.268 14 14 0 7.732-6.268 14-14 14z" fill="#6165a8"/><path d="m429.969 14h-33c7.732 0 14 6.268 14 14s-6.268 14-14 14h33c7.732 0 14-6.268 14-14s-6.268-14-14-14z" fill="#4e5291"/></svg>