<svg id="Capa_1" enable-background="new 0 0 511.998 511.998" height="512" viewBox="0 0 511.998 511.998" width="512" xmlns="http://www.w3.org/2000/svg"><g><path d="m342.459 357.539-321 153c-5.72 2.721-12.498 1.569-17.01-2.88-4.547-4.519-5.677-11.319-3.04-16.99l153-329c4.451-9.563 17.156-11.665 24.45-4.03 102.909 107.82 64.652 67.742 168 176 7.039 7.378 4.815 19.515-4.4 23.9z" fill="#ffdd54"/><path d="m346.859 333.639c7.039 7.378 4.815 19.515-4.4 23.9l-321 153c-5.881 2.798-12.719 1.438-17.06-2.93l260.17-260.17z" fill="#ffb454"/><path d="m351.009 335.999v8c0 8.28-6.72 15-15 15-100.896 0-183-82.079-183-183v-8c0-8.28 6.72-15 15-15 101.028 0 183 82.206 183 183z" fill="#ffb454"/><path d="m351.009 335.999v8c0 8.28-6.72 15-15 15-50.46 0-96.2-20.52-129.34-53.66l94.62-94.62c30.82 32.77 49.72 76.85 49.72 125.28z" fill="#ff8659"/><path d="m151.009 375.999c0 8.251-6.748 15-15 15s-15-6.749-15-15c0-8.64 7.406-15.764 16.48-14.93 7.913.823 13.52 7.443 13.52 14.93z" fill="#acceff"/><path d="m150.939 374.519c1.407 13.773-15.276 22.06-25.54 12.09l21.22-21.22c2.591 2.667 3.977 5.832 4.32 9.13z" fill="#989dec"/><path d="m160.009 318.999c-8.198 0-15-6.689-15-15 0-8.568 7.335-15.769 16.48-14.93 8.533.894 14.264 8.476 13.45 16.41-.809 7.795-7.328 13.52-14.93 13.52z" fill="#ff5e90"/><path d="m200.009 366.999c-8.198 0-15-6.689-15-15 0-8.568 7.335-15.769 16.48-14.93 8.549.896 14.262 8.491 13.45 16.41-.809 7.795-7.328 13.52-14.93 13.52z" fill="#00a763"/><path d="m290.13 1.15c-8.193-1.171-15.798 4.526-16.97 12.728l-4.422 30.958c-.019.132.453-.609-6.671 10.077-3.9 2.388-6.939 2.086-10.976 2.086-31.182 0-52.621 31.536-41.008 60.571 3.062 7.656 11.772 11.446 19.498 8.356 7.692-3.077 11.433-11.806 8.356-19.498-3.706-9.263 3.061-19.429 13.154-19.429h3.622c21.838 0 40.635-16.303 43.724-37.921l4.422-30.958c1.171-8.201-4.528-15.799-12.729-16.97z" fill="#ff5e90"/><path d="m510.561 140.36c-2.009-8.036-10.153-12.923-18.19-10.914l-12.007 3.002c-18.461 4.615-31.355 21.129-31.355 40.159v16.399c0 7.571-7.24 13.04-14.525 10.956-19.986-5.71-41.232 4.391-49.42 23.496l-14.842 34.631c-4.254 9.926 3.083 20.913 13.78 20.913 5.82 0 11.357-3.408 13.794-9.095l14.842-34.631c2.254-5.259 8.104-8.04 13.604-6.468 26.456 7.557 52.767-12.272 52.767-39.802v-16.399c0-5.238 3.549-9.784 8.631-11.054l12.007-3.002c8.037-2.01 12.924-10.154 10.914-18.191z" fill="#00a763"/><path d="m352.009 38.999c-8.237 0-15-6.735-15-15 0-8.574 7.339-15.768 16.48-14.93 8.531.894 14.264 8.474 13.45 16.41-.796 7.673-7.235 13.52-14.93 13.52z" fill="#ff5e90"/><path d="m272.009 150.999c-8.198 0-15-6.689-15-15 0-8.568 7.335-15.769 16.48-14.93 7.88.826 14.169 7.604 13.45 16.41-.809 7.795-7.328 13.52-14.93 13.52z" fill="#ffdd54"/><path d="m208.009 30.999c-8.236 0-15-6.734-15-15 0-8.589 7.354-15.767 16.48-14.93 7.88.826 14.169 7.604 13.45 16.41-.797 7.676-7.24 13.52-14.93 13.52z" fill="#ace233"/><path d="m384.009 174.999c-8.217 0-15-6.713-15-15 0-8.914 7.797-15.817 16.48-14.93 7.932.831 14.177 7.678 13.45 16.4-.792 7.797-7.333 13.53-14.93 13.53z" fill="#00a763"/><path d="m472.009 102.999c-8.234 0-15-6.731-15-15 0-8.914 7.797-15.817 16.48-14.93 8.548.896 14.262 8.49 13.45 16.41-.809 7.796-7.328 13.52-14.93 13.52z" fill="#ffb454"/><path d="m440.009 302.999c-8.272 0-15-6.768-15-15 0-8.568 7.335-15.769 16.48-14.93 8.421.882 14.275 8.364 13.45 16.41-.82 7.897-7.434 13.52-14.93 13.52z" fill="#d01273"/><path d="m499.159 29.839c-24.418 3.55-14.784 2.149-43.41 6.31-8.402.935-16.072 6.054-20.05 14.02l-19.04 38.07c-9.48 18.97-28.56 30.76-49.78 30.76-15.612 0-27.592 13.843-25.39 29.28l1.37 9.6c1.17 8.2-4.53 15.8-12.73 16.97-8.397 1.166-15.82-4.694-16.97-12.73l-1.37-9.6c-4.795-33.608 21.327-63.52 55.09-63.52 9.78 0 18.58-5.43 22.95-14.18l19.03-38.07c8.32-16.63 24.28-27.95 42.72-30.31l43.28-6.28c4.86-.71 9.52 1.01 12.75 4.24 8.563 8.486 3.95 23.64-8.45 25.44z" fill="#acceff"/></g></svg>