<svg id="Layer_1" enable-background="new 0 0 510.006 510.006" height="512" viewBox="0 0 510.006 510.006" width="512" xmlns="http://www.w3.org/2000/svg"><g><path d="m228.11 22.282-40 72c-2.64 4.77-7.66 7.72-13.11 7.72h-64c-5.45 0-10.47-2.95-13.11-7.72l-40-72c-5.534-9.952 1.649-22.28 13.11-22.28h144c11.41 0 18.668 12.285 13.11 22.28z" fill="#4a696f"/><path d="m215 286.002h-144c-11.392 0-18.679-12.263-13.11-22.28l40-72c2.64-4.77 7.66-7.72 13.11-7.72h64c5.45 0 10.47 2.95 13.11 7.72l40 72c5.534 9.954-1.649 22.28-13.11 22.28z" fill="#4a696f"/><path d="m228.11 22.282-40 72c-2.64 4.77-7.66 7.72-13.11 7.72h-32v-102h72c11.41 0 18.668 12.285 13.11 22.28z" fill="#384949"/><path d="m263.72 57.892-72 40c-4.77 2.64-7.72 7.66-7.72 13.11v64c0 5.45 2.95 10.47 7.72 13.11l72 40c9.943 5.542 22.28-1.655 22.28-13.11v-144c0-11.392-12.264-18.679-22.28-13.11z" fill="#384949"/><path d="m94.28 97.892-72-40c-9.953-5.534-22.28 1.649-22.28 13.11v144c0 8.266 6.698 15 15 15 5.402 0 1.56 1.288 79.28-41.89 4.77-2.641 7.72-7.66 7.72-13.11v-64c0-5.45-2.95-10.47-7.72-13.11z" fill="#4a696f"/><path d="m215 286.002h-72v-102h32c5.45 0 10.47 2.95 13.11 7.72l40 72c5.534 9.954-1.649 22.28-13.11 22.28z" fill="#384949"/><circle cx="143" cy="143.002" fill="#fed843" r="79"/><path d="m222 143.002c0 43.56-35.44 79-79 79v-158c43.56 0 79 35.44 79 79z" fill="#fabe2c"/><path d="m259.16 486.222-101.16-140.07v-75.15c0-8.28-6.72-15-15-15s-15 6.72-15 15v75.15l-101.16 140.07c-7.226 9.997.1 23.78 12.15 23.78 4.65 0 9.24-2.16 12.17-6.22l18.62-25.78h146.44l18.62 25.78c4.863 6.738 14.266 8.215 20.94 3.38 6.72-4.85 8.23-14.23 3.38-20.94zm-131.16-38.22h-36.55l36.55-50.61zm30 0v-50.61l36.55 50.61z" fill="#4a696f"/><path d="m259.16 486.222-101.16-140.07v-75.15c0-8.28-6.72-15-15-15v222h73.22l18.62 25.78c4.863 6.738 14.266 8.215 20.94 3.38 6.72-4.85 8.23-14.23 3.38-20.94zm-101.16-38.22v-50.61l36.55 50.61z" fill="#384949"/><path d="m478.61 507.932c-7.212 4.226-16.366 1.761-20.54-5.319l-52.07-88.531v80.92c0 8.28-6.72 15-15 15s-15-6.72-15-15v-80.92l-52.07 88.53c-4.18 7.091-13.341 9.537-20.54 5.319-7.14-4.199-9.52-13.39-5.32-20.54l77.93-132.469v-28.92h-41c-8.28 0-15-6.72-15-15s6.72-15 15-15h41v-41c0-8.28 6.72-15 15-15s15 6.72 15 15v41h41c8.28 0 15 6.72 15 15s-6.72 15-15 15h-41v28.92l77.93 132.47c4.2 7.15 1.82 16.341-5.32 20.54z" fill="#4a696f"/><path d="m478.61 507.932c-7.212 4.226-16.366 1.761-20.54-5.319l-52.07-88.531v80.92c0 8.28-6.72 15-15 15v-270c8.28 0 15 6.72 15 15v41h41c8.28 0 15 6.72 15 15s-6.72 15-15 15h-41v28.92l77.93 132.47c4.2 7.15 1.82 16.341-5.32 20.54z" fill="#384949"/><path d="m509.1 244.132c-2.813 7.717-11.343 11.801-19.23 8.97l-46.92-17.06c-7.48 19.75-27.94 33.96-51.95 33.96-30.33 0-55-22.68-55-50.56v-44.44c0-8.28 6.72-15 15-15h80c8.28 0 15 6.72 15 15v30.22l54.13 19.681c7.78 2.83 11.8 11.439 8.97 19.229z" fill="#384949"/><path d="m509.1 244.132c-2.813 7.717-11.343 11.801-19.23 8.97l-46.92-17.06c-7.48 19.75-27.94 33.96-51.95 33.96v-110h40c8.28 0 15 6.72 15 15v30.22l54.13 19.681c7.78 2.83 11.8 11.439 8.97 19.229z" fill="#293939"/></g></svg>