<svg height="496pt" viewBox="0 0 496 496" width="496pt" xmlns="http://www.w3.org/2000/svg"><path d="m248 8h-80c-8.800781 0-16 7.199219-16 16v160c0 8.800781 7.199219 16 16 16h80c8.800781 0 16-7.199219 16-16v-160c0-8.800781-7.199219-16-16-16zm0 0" fill="#838f9b"/><path d="m184 104h48v96h-48zm0 0" fill="#fcd770"/><path d="m328 136v32l-32-16v-96l32-16zm0 0" fill="#838f9b"/><path d="m328 136h64v32h-64zm0 0" fill="#aab2bd"/><path d="m296 56v96l-32 32v-160zm0 0" fill="#ccd1d9"/><path d="m232 456v12.878906c0 10.5625-8.558594 19.121094-19.121094 19.121094h-9.757812c-10.5625 0-19.121094-8.558594-19.121094-19.121094v-12.878906zm0 0" fill="#b27946"/><path d="m184 8h32v32h-32zm0 0" fill="#fcd770"/><path d="m328 104h64v32h-64zm0 0" fill="#838f9b"/><path d="m328 72h64v32h-64zm0 0" fill="#aab2bd"/><path d="m373.679688 459.679688c1.519531 2.878906 2.320312 6 2.320312 9.199218 0 10.5625-8.558594 19.121094-19.121094 19.121094h-1.679687c-6.960938 0-13.277344-3.761719-16.640625-9.761719l-12.480469-22.238281h45.523437zm0 0" fill="#b27946"/><g fill="#838f9b"><path d="m328 40h64v32h-64zm0 0"/><path d="m72 200v8c0 4.398438-3.601562 8-8 8h-48c-4.398438 0-8-3.601562-8-8v-16c0-4.398438 3.601562-8 8-8h48c4.398438 0 8 3.601562 8 8zm0 0"/><path d="m248 200v16c0 3.441406-1.121094 6.558594-2.960938 9.199219-2.878906 4.082031-7.679687 6.800781-13.039062 6.800781h-48c-5.359375 0-10.160156-2.71875-13.039062-6.800781-1.921876-2.640625-2.960938-5.757813-2.960938-9.199219v-16zm0 0"/></g><path d="m44.398438 456h45.523437l-12.480469 22.238281c-3.363281 6-9.679687 9.761719-16.640625 9.761719h-1.679687c-10.5625 0-19.121094-8.558594-19.121094-19.121094 0-3.199218.800781-6.320312 2.320312-9.199218zm0 0" fill="#b27946"/><path d="m152 40v128h-32c-8.800781 0-16-7.199219-16-16v-96c0-8.800781 7.199219-16 16-16zm0 0" fill="#dfb28b"/><path d="m245.039062 225.199219c-2.878906 4.082031-7.679687 6.800781-13.039062 6.800781h-48c-5.359375 0-10.160156-2.71875-13.039062-6.800781l-126.5625 230.800781h45.601562l94-167.121094v167.121094h48v-167.121094l94 167.121094h45.601562zm0 0" fill="#ccd1d9"/><path d="m488 160v24h-80c-8.800781 0-16-7.199219-16-16v-128c0-8.800781 7.199219-16 16-16h80v24l-48 8v16l32 8v48l-32 8v16zm0 0" fill="#838f9b"/><path d="m496 54.777344v-38.777344h-88c-10.414062 0-19.214844 6.710938-22.527344 16h-59.359375l-28.539062 14.265625-25.949219-25.953125c-1.785156-11.472656-11.648438-20.3125-23.625-20.3125h-80c-13.230469 0-24 10.769531-24 24v8h-24c-13.230469 0-24 10.769531-24 24v96c0 13.230469 10.769531 24 24 24h24v8c0 2.816406.574219 5.488281 1.472656 8h-65.472656c0-8.824219-7.175781-16-16-16h-48c-8.824219 0-16 7.175781-16 16v16c0 8.824219 7.175781 16 16 16h48c8.824219 0 16-7.175781 16-16h80v8c0 3.246094.664062 6.34375 1.839844 9.175781l-126.496094 230.679688c-2.183594 3.984375-3.34375 8.488281-3.34375 13.039062 0 14.945313 12.160156 27.105469 27.105469 27.105469h1.71875c9.777343 0 18.832031-5.296875 23.625-13.816406l91.550781-162.75v149.460937c0 14.945313 12.160156 27.105469 27.105469 27.105469h9.789062c14.945313 0 27.105469-12.160156 27.105469-27.105469v-149.460937l91.550781 162.75c4.792969 8.519531 13.839844 13.816406 23.617188 13.816406h1.71875c14.953125 0 27.113281-12.160156 27.113281-27.105469 0-4.542969-1.160156-9.054687-3.335938-13.03125l-126.503906-230.6875c1.175782-2.824219 1.839844-5.917969 1.839844-9.175781v-9.472656c8.167969-2.910156 14.257812-10.0625 15.625-18.839844l25.949219-25.953125 28.539062 14.265625h59.359375c3.3125 9.289062 12.113282 16 22.527344 16h88v-38.777344l-48-8v-2.976562l32-8v-60.492188l-32-8v-2.976562zm-432 153.222656h-48v-16h48zm240-147.054688 16-8v102.109376l-16-8zm32 83.054688h48v16h-48zm0-16v-16h48v16zm0-32v-16h48v16zm0-32v-16h48v16zm-144-48h16v16h-16zm-72 144c-4.40625 0-8-3.59375-8-8v-96c0-4.40625 3.59375-8 8-8h24v112zm104 80v208h-32v-208zm8-16h-48c-4.40625 0-8-3.59375-8-8v-8h64v8c0 4.40625-3.59375 8-8 8zm-8-32h-32v-80h32zm-163.167969 288h-1.726562c-6.121094 0-11.105469-4.984375-11.105469-11.105469 0-1.703125.441406-3.367187 1.191406-4.894531h27.128906l-5.816406 10.335938c-1.96875 3.496093-5.671875 5.664062-9.671875 5.664062zm24.488281-32h-27.417968l115.480468-210.585938c.847657.425782 1.714844.792969 2.617188 1.113282v48.273437zm127.574219 32h-9.789062c-6.121094 0-11.105469-4.984375-11.105469-11.105469v-4.894531h32v4.894531c0 6.121094-4.984375 11.105469-11.105469 11.105469zm27.105469-241.472656c.902344-.320313 1.769531-.6875 2.617188-1.113282l115.488281 210.585938h-27.425781l-90.679688-161.207031zm116.894531 241.472656h-1.71875c-4 0-7.710937-2.167969-9.671875-5.664062l-5.824218-10.335938h27.128906c.75 1.519531 1.191406 3.191406 1.191406 4.894531 0 6.121094-4.984375 11.105469-11.105469 11.105469zm-100.894531-296c0 4.40625-3.59375 8-8 8h-8v-96h-64v96h-8c-4.40625 0-8-3.59375-8-8v-160c0-4.40625 3.59375-8 8-8h8v32h48v-32h24c4.40625 0 8 3.59375 8 8zm32-35.3125-16 16v-121.375l16 16zm176-62.441406v35.507812l-32 8v29.023438l48 8v9.222656h-72c-4.40625 0-8-3.59375-8-8v-128c0-4.40625 3.59375-8 8-8h72v9.222656l-48 8v29.023438zm0 0" fill="#1e1713"/></svg>